<svg xmlns="http://www.w3.org/2000/svg" viewBox="0 0 64 64" fill="none">
  <defs>
    <linearGradient id="tile-gradient" x1="10" y1="8" x2="54" y2="58" gradientUnits="userSpaceOnUse">
      <stop stop-color="#3a8c88" />
      <stop offset="1" stop-color="#235e5b" />
    </linearGradient>
  </defs>
  <rect x="4" y="4" width="56" height="56" rx="16" fill="url(#tile-gradient)" />
  <rect x="5.25" y="5.25" width="53.5" height="53.5" rx="14.75" stroke="#d7efed" stroke-opacity="0.28" stroke-width="1.5" />
  <g fill="#f7fbfb">
    <rect x="12.75" y="13" width="5.5" height="24" rx="2.75" />
    <rect x="16.75" y="13" width="12.5" height="10.25" rx="5.125" />
    <rect x="16.75" y="26.75" width="12.5" height="10.25" rx="5.125" />
    <rect x="31.5" y="13" width="5.5" height="24" rx="2.75" />
    <rect x="35.5" y="13" width="12.5" height="10.25" rx="5.125" />
    <rect x="35.5" y="26.75" width="12.5" height="10.25" rx="5.125" />
  </g>
  <g fill="#245d5b">
    <rect x="20.5" y="16.25" width="5.25" height="3.75" rx="1.875" />
    <rect x="20.5" y="30" width="5.25" height="3.75" rx="1.875" />
    <rect x="39.25" y="16.25" width="5.25" height="3.75" rx="1.875" />
    <rect x="39.25" y="30" width="5.25" height="3.75" rx="1.875" />
  </g>
  <rect x="12" y="41.5" width="40" height="11" rx="5.5" fill="#f7fbfb" fill-opacity="0.14" />
  <g stroke="#f0c17d" stroke-linecap="round" stroke-linejoin="round" stroke-width="2.2">
    <path d="m17.75 45.75 1.65 1.65 3.25-3.55" />
    <path d="m17.75 50.25 1.65 1.65 3.25-3.55" />
  </g>
  <g fill="#f7fbfb">
    <rect x="26" y="44.5" width="16.5" height="2.3" rx="1.15" />
    <rect x="26" y="49" width="12.25" height="2.3" rx="1.15" />
  </g>
</svg>
